<svg width="600" height="150" viewBox="0 0 600 150" fill="none" xmlns="http://www.w3.org/2000/svg">
  <!-- Red Crewmate -->
  <g transform="translate(20, 20) scale(0.6)">
    <path d="M60 10C39.5 10 25 24.5 25 45V85C25 96 34 105 45 105H75C86 105 95 96 95 85V45C95 24.5 80.5 10 60 10Z" fill="#FF5555"/>
    <path d="M85 45H95C95 24.5 80.5 10 60 10C39.5 10 25 24.5 25 45H35C35 30 46 20 60 20C74 20 85 30 85 45Z" fill="#CC3333"/>
    <path d="M40 40C40 46.1 44.9 51 51 51C57.1 51 62 46.1 62 40C62 33.9 57.1 29 51 29C44.9 29 40 33.9 40 40Z" fill="#ffffff"/>
    <path d="M58 40C58 43.3 60.7 46 64 46C67.3 46 70 43.3 70 40C70 36.7 67.3 34 64 34C60.7 34 58 36.7 58 40Z" fill="#ffffff"/>
  </g>

  <!-- Green Crewmate -->
  <g transform="translate(90, 20) scale(0.6)">
    <path d="M60 10C39.5 10 25 24.5 25 45V85C25 96 34 105 45 105H75C86 105 95 96 95 85V45C95 24.5 80.5 10 60 10Z" fill="#55CC55"/>
    <path d="M85 45H95C95 24.5 80.5 10 60 10C39.5 10 25 24.5 25 45H35C35 30 46 20 60 20C74 20 85 30 85 45Z" fill="#339933"/>
    <path d="M40 40C40 46.1 44.9 51 51 51C57.1 51 62 46.1 62 40C62 33.9 57.1 29 51 29C44.9 29 40 33.9 40 40Z" fill="#ffffff"/>
    <path d="M58 40C58 43.3 60.7 46 64 46C67.3 46 70 43.3 70 40C70 36.7 67.3 34 64 34C60.7 34 58 36.7 58 40Z" fill="#ffffff"/>
  </g>

  <!-- Blue Crewmate -->
  <g transform="translate(160, 20) scale(0.6)">
    <path d="M60 10C39.5 10 25 24.5 25 45V85C25 96 34 105 45 105H75C86 105 95 96 95 85V45C95 24.5 80.5 10 60 10Z" fill="#5555DD"/>
    <path d="M85 45H95C95 24.5 80.5 10 60 10C39.5 10 25 24.5 25 45H35C35 30 46 20 60 20C74 20 85 30 85 45Z" fill="#3333AA"/>
    <path d="M40 40C40 46.1 44.9 51 51 51C57.1 51 62 46.1 62 40C62 33.9 57.1 29 51 29C44.9 29 40 33.9 40 40Z" fill="#ffffff"/>
    <path d="M58 40C58 43.3 60.7 46 64 46C67.3 46 70 43.3 70 40C70 36.7 67.3 34 64 34C60.7 34 58 36.7 58 40Z" fill="#ffffff"/>
  </g>

  <!-- Purple Crewmate -->
  <g transform="translate(230, 20) scale(0.6)">
    <path d="M60 10C39.5 10 25 24.5 25 45V85C25 96 34 105 45 105H75C86 105 95 96 95 85V45C95 24.5 80.5 10 60 10Z" fill="#9955AA"/>
    <path d="M85 45H95C95 24.5 80.5 10 60 10C39.5 10 25 24.5 25 45H35C35 30 46 20 60 20C74 20 85 30 85 45Z" fill="#773388"/>
    <path d="M40 40C40 46.1 44.9 51 51 51C57.1 51 62 46.1 62 40C62 33.9 57.1 29 51 29C44.9 29 40 33.9 40 40Z" fill="#ffffff"/>
    <path d="M58 40C58 43.3 60.7 46 64 46C67.3 46 70 43.3 70 40C70 36.7 67.3 34 64 34C60.7 34 58 36.7 58 40Z" fill="#ffffff"/>
  </g>

  <!-- Yellow Crewmate -->
  <g transform="translate(300, 20) scale(0.6)">
    <path d="M60 10C39.5 10 25 24.5 25 45V85C25 96 34 105 45 105H75C86 105 95 96 95 85V45C95 24.5 80.5 10 60 10Z" fill="#FFDD44"/>
    <path d="M85 45H95C95 24.5 80.5 10 60 10C39.5 10 25 24.5 25 45H35C35 30 46 20 60 20C74 20 85 30 85 45Z" fill="#DDBB33"/>
    <path d="M40 40C40 46.1 44.9 51 51 51C57.1 51 62 46.1 62 40C62 33.9 57.1 29 51 29C44.9 29 40 33.9 40 40Z" fill="#ffffff"/>
    <path d="M58 40C58 43.3 60.7 46 64 46C67.3 46 70 43.3 70 40C70 36.7 67.3 34 64 34C60.7 34 58 36.7 58 40Z" fill="#ffffff"/>
  </g>

  <!-- Orange Crewmate -->
  <g transform="translate(370, 20) scale(0.6)">
    <path d="M60 10C39.5 10 25 24.5 25 45V85C25 96 34 105 45 105H75C86 105 95 96 95 85V45C95 24.5 80.5 10 60 10Z" fill="#FF9944"/>
    <path d="M85 45H95C95 24.5 80.5 10 60 10C39.5 10 25 24.5 25 45H35C35 30 46 20 60 20C74 20 85 30 85 45Z" fill="#DD7722"/>
    <path d="M40 40C40 46.1 44.9 51 51 51C57.1 51 62 46.1 62 40C62 33.9 57.1 29 51 29C44.9 29 40 33.9 40 40Z" fill="#ffffff"/>
    <path d="M58 40C58 43.3 60.7 46 64 46C67.3 46 70 43.3 70 40C70 36.7 67.3 34 64 34C60.7 34 58 36.7 58 40Z" fill="#ffffff"/>
  </g>

  <!-- Pink Crewmate -->
  <g transform="translate(440, 20) scale(0.6)">
    <path d="M60 10C39.5 10 25 24.5 25 45V85C25 96 34 105 45 105H75C86 105 95 96 95 85V45C95 24.5 80.5 10 60 10Z" fill="#FF77BB"/>
    <path d="M85 45H95C95 24.5 80.5 10 60 10C39.5 10 25 24.5 25 45H35C35 30 46 20 60 20C74 20 85 30 85 45Z" fill="#DD5599"/>
    <path d="M40 40C40 46.1 44.9 51 51 51C57.1 51 62 46.1 62 40C62 33.9 57.1 29 51 29C44.9 29 40 33.9 40 40Z" fill="#ffffff"/>
    <path d="M58 40C58 43.3 60.7 46 64 46C67.3 46 70 43.3 70 40C70 36.7 67.3 34 64 34C60.7 34 58 36.7 58 40Z" fill="#ffffff"/>
  </g>

  <!-- Rainbow Crewmate -->
  <g transform="translate(510, 20) scale(0.6)">
    <defs>
      <linearGradient id="rainbow" x1="0%" y1="0%" x2="100%" y2="100%">
        <stop offset="0%" stop-color="#FF5555" />
        <stop offset="14.29%" stop-color="#FF9944" />
        <stop offset="28.57%" stop-color="#FFDD44" />
        <stop offset="42.86%" stop-color="#55CC55" />
        <stop offset="57.14%" stop-color="#5555DD" />
        <stop offset="71.43%" stop-color="#9955AA" />
        <stop offset="85.71%" stop-color="#FF77BB" />
        <stop offset="100%" stop-color="#FF5555" />
      </linearGradient>
    </defs>
    <path d="M60 10C39.5 10 25 24.5 25 45V85C25 96 34 105 45 105H75C86 105 95 96 95 85V45C95 24.5 80.5 10 60 10Z" fill="url(#rainbow)"/>
    <path d="M85 45H95C95 24.5 80.5 10 60 10C39.5 10 25 24.5 25 45H35C35 30 46 20 60 20C74 20 85 30 85 45Z" fill="#888888" opacity="0.3"/>
    <path d="M40 40C40 46.1 44.9 51 51 51C57.1 51 62 46.1 62 40C62 33.9 57.1 29 51 29C44.9 29 40 33.9 40 40Z" fill="#ffffff"/>
    <path d="M58 40C58 43.3 60.7 46 64 46C67.3 46 70 43.3 70 40C70 36.7 67.3 34 64 34C60.7 34 58 36.7 58 40Z" fill="#ffffff"/>
  </g>
</svg>