<svg width="120" height="120" viewBox="0 0 120 120" fill="none" xmlns="http://www.w3.org/2000/svg">
  <path d="M60 10C39.5 10 25 24.5 25 45V85C25 96 34 105 45 105H75C86 105 95 96 95 85V45C95 24.5 80.5 10 60 10Z" fill="#888888"/>
  <path d="M85 45H95C95 24.5 80.5 10 60 10C39.5 10 25 24.5 25 45H35C35 30 46 20 60 20C74 20 85 30 85 45Z" fill="#666666"/>
  <path d="M40 40C40 46.1 44.9 51 51 51C57.1 51 62 46.1 62 40C62 33.9 57.1 29 51 29C44.9 29 40 33.9 40 40Z" fill="#ffffff"/>
  <path d="M58 40C58 43.3 60.7 46 64 46C67.3 46 70 43.3 70 40C70 36.7 67.3 34 64 34C60.7 34 58 36.7 58 40Z" fill="#ffffff"/>
  <path d="M40 75H80V85C80 89.4 76.4 93 72 93H48C43.6 93 40 89.4 40 85V75Z" fill="#666666"/>
</svg>